<ttFont>
<head>
    <!-- Most of this table will be recalculated by the compiler -->
    <tableVersion value="1.0"/>
    <fontRevision value="1.002"/>
    <checkSumAdjustment value="0x57cdb7ab"/>
    <magicNumber value="0x5f0f3cf5"/>
    <flags value="00000000 00000011"/>
    <unitsPerEm value="1000"/>
    <created value="Mon Aug 22 07:00:39 2022"/>
    <modified value="Thu Sep  1 13:17:58 2022"/>
    <xMin value="0"/>
    <yMin value="-50"/>
    <xMax value="632"/>
    <yMax value="950"/>
    <macStyle value="00000000 00000000"/>
    <lowestRecPPEM value="6"/>
    <fontDirectionHint value="2"/>
    <indexToLocFormat value="0"/>
    <glyphDataFormat value="0"/>
  </head>
    <TTGlyph name=".notdef" xMin="43" yMin="-50" xMax="563" yMax="950">
      <component glyphName="glyph00003" x="0" y="0" flags="0x604"/>
      <component glyphName="glyph00005" x="0" y="0" flags="0x4"/>
      <component glyphName="glyph00006" x="0" y="0" flags="0x4"/>
      <component glyphName="glyph00017" x="0" y="0" flags="0x4"/>
      <component glyphName="glyph00028" x="0" y="0" flags="0x4"/>
      <component glyphName="glyph00035" x="0" y="0" flags="0x4"/>
      <component glyphName="glyph00036" x="0" y="0" flags="0x4"/>
      <component glyphName="glyph00037" x="0" y="0" flags="0x4"/>
      <component glyphName="glyph00038" x="0" y="0" flags="0x4"/>
      <component glyphName="glyph00039" x="0" y="0" flags="0x4"/>
      <component glyphName="glyph00040" x="0" y="0" flags="0x4"/>
      <component glyphName="glyph00007" x="0" y="0" flags="0x4"/>
      <component glyphName="glyph00008" x="0" y="0" flags="0x4"/>
      <component glyphName="glyph00009" x="0" y="0" flags="0x4"/>
      <component glyphName="glyph00010" x="0" y="0" flags="0x4"/>
      <component glyphName="glyph00011" x="0" y="0" flags="0x4"/>
      <component glyphName="glyph00012" x="0" y="0" flags="0x4"/>
      <component glyphName="glyph00013" x="0" y="0" flags="0x4"/>
      <component glyphName="glyph00014" x="0" y="0" flags="0x4"/>
      <component glyphName="glyph00015" x="0" y="0" flags="0x4"/>
      <component glyphName="glyph00016" x="0" y="0" flags="0x4"/>
      <component glyphName="glyph00018" x="0" y="0" flags="0x4"/>
      <component glyphName="glyph00019" x="0" y="0" flags="0x4"/>
      <component glyphName="glyph00020" x="0" y="0" flags="0x4"/>
      <component glyphName="glyph00021" x="0" y="0" flags="0x4"/>
      <component glyphName="glyph00022" x="0" y="0" flags="0x4"/>
      <component glyphName="glyph00023" x="0" y="0" flags="0x4"/>
      <component glyphName="glyph00024" x="0" y="0" flags="0x4"/>
      <component glyphName="glyph00025" x="0" y="0" flags="0x4"/>
      <component glyphName="glyph00026" x="0" y="0" flags="0x4"/>
      <component glyphName="glyph00027" x="0" y="0" flags="0x4"/>
      <component glyphName="glyph00029" x="0" y="0" flags="0x4"/>
      <component glyphName="glyph00030" x="0" y="0" flags="0x4"/>
      <component glyphName="glyph00031" x="0" y="0" flags="0x4"/>
      <component glyphName="glyph00032" x="0" y="0" flags="0x4"/>
      <component glyphName="glyph00033" x="0" y="0" flags="0x4"/>
      <component glyphName="glyph00034" x="0" y="0" flags="0x4"/>
    </TTGlyph>
    <TTGlyph name="glyph00003" xMin="130" yMin="-50" xMax="563" yMax="900">
      <contour>
        <pt x="390" y="100" on="1" overlap="1"/>
        <pt x="303" y="50" on="1"/>
        <pt x="303" y="150" on="1"/>
        <pt x="390" y="200" on="1"/>
        <pt x="390" y="300" on="1"/>
        <pt x="303" y="250" on="1"/>
        <pt x="303" y="350" on="1"/>
        <pt x="390" y="400" on="1"/>
        <pt x="390" y="500" on="1"/>
        <pt x="476" y="550" on="1"/>
        <pt x="476" y="450" on="1"/>
        <pt x="563" y="500" on="1"/>
        <pt x="563" y="400" on="1"/>
        <pt x="476" y="350" on="1"/>
        <pt x="476" y="250" on="1"/>
        <pt x="563" y="300" on="1"/>
        <pt x="563" y="200" on="1"/>
        <pt x="476" y="150" on="1"/>
        <pt x="476" y="250" on="1"/>
        <pt x="390" y="200" on="1"/>
      </contour>
      <contour>
        <pt x="217" y="0" on="1"/>
        <pt x="130" y="-50" on="1"/>
        <pt x="130" y="50" on="1"/>
        <pt x="217" y="100" on="1"/>
      </contour>
      <contour>
        <pt x="217" y="200" on="1"/>
        <pt x="303" y="250" on="1"/>
        <pt x="303" y="150" on="1"/>
        <pt x="217" y="100" on="1"/>
      </contour>
      <contour>
        <pt x="217" y="300" on="1"/>
        <pt x="217" y="200" on="1"/>
        <pt x="130" y="150" on="1"/>
        <pt x="130" y="250" on="1"/>
      </contour>
      <contour>
        <pt x="217" y="400" on="1"/>
        <pt x="303" y="450" on="1"/>
        <pt x="303" y="350" on="1"/>
        <pt x="217" y="300" on="1"/>
      </contour>
      <contour>
        <pt x="217" y="500" on="1"/>
        <pt x="217" y="400" on="1"/>
        <pt x="130" y="350" on="1"/>
        <pt x="130" y="450" on="1"/>
      </contour>
      <contour>
        <pt x="217" y="600" on="1"/>
        <pt x="303" y="650" on="1"/>
        <pt x="303" y="550" on="1"/>
        <pt x="217" y="500" on="1"/>
      </contour>
      <contour>
        <pt x="390" y="700" on="1"/>
        <pt x="303" y="650" on="1"/>
        <pt x="303" y="750" on="1"/>
        <pt x="390" y="800" on="1"/>
      </contour>
      <contour>
        <pt x="303" y="550" on="1"/>
        <pt x="390" y="600" on="1"/>
        <pt x="390" y="500" on="1"/>
        <pt x="303" y="450" on="1"/>
      </contour>
      <contour>
        <pt x="390" y="700" on="1"/>
        <pt x="476" y="750" on="1"/>
        <pt x="476" y="650" on="1"/>
        <pt x="390" y="600" on="1"/>
      </contour>
      <contour>
        <pt x="563" y="800" on="1"/>
        <pt x="476" y="750" on="1"/>
        <pt x="476" y="850" on="1"/>
        <pt x="563" y="900" on="1"/>
      </contour>
      <contour>
        <pt x="563" y="600" on="1"/>
        <pt x="476" y="550" on="1"/>
        <pt x="476" y="650" on="1"/>
        <pt x="563" y="700" on="1"/>
      </contour>
      <contour>
        <pt x="476" y="450" on="1"/>
        <pt x="390" y="400" on="1"/>
        <pt x="390" y="300" on="1"/>
        <pt x="476" y="350" on="1"/>
      </contour>
      <contour>
        <pt x="217" y="600" on="1"/>
        <pt x="130" y="550" on="1"/>
        <pt x="130" y="650" on="1"/>
        <pt x="217" y="700" on="1"/>
      </contour>
    </TTGlyph>
    <TTGlyph name="glyph00004" xMin="125" yMin="550" xMax="217" yMax="700">
      <contour>
        <pt x="130" y="550" on="1" overlap="1"/>
        <pt x="126" y="590" on="0"/>
        <pt x="125" y="634" on="0"/>
        <pt x="125" y="653" on="1"/>
        <pt x="141" y="662" on="0"/>
        <pt x="180" y="684" on="0"/>
        <pt x="217" y="700" on="1"/>
        <pt x="188" y="679" on="0"/>
        <pt x="151" y="656" on="0"/>
        <pt x="135" y="647" on="1"/>
        <pt x="135" y="628" on="0"/>
        <pt x="134" y="585" on="0"/>
      </contour>
    </TTGlyph>
    <TTGlyph name="glyph00005" xMin="390" yMin="150" xMax="476" yMax="300">
      <contour>
        <pt x="476" y="250" on="1" overlap="1"/>
        <pt x="476" y="150" on="1"/>
        <pt x="390" y="200" on="1"/>
        <pt x="390" y="300" on="1"/>
      </contour>
    </TTGlyph>
    <TTGlyph name="glyph00006" xMin="390" yMin="250" xMax="563" yMax="350">
      <contour>
        <pt x="563" y="300" on="1" overlap="1"/>
        <pt x="476" y="250" on="1"/>
        <pt x="390" y="300" on="1"/>
        <pt x="476" y="350" on="1"/>
      </contour>
    </TTGlyph>
    <TTGlyph name="glyph00007" xMin="390" yMin="350" xMax="476" yMax="500">
      <contour>
        <pt x="476" y="450" on="1" overlap="1"/>
        <pt x="476" y="350" on="1"/>
        <pt x="390" y="400" on="1"/>
        <pt x="390" y="500" on="1"/>
      </contour>
    </TTGlyph>
    <TTGlyph name="glyph00008" xMin="303" yMin="500" xMax="476" yMax="600">
      <contour>
        <pt x="476" y="550" on="1" overlap="1"/>
        <pt x="390" y="500" on="1"/>
        <pt x="303" y="550" on="1"/>
        <pt x="390" y="600" on="1"/>
      </contour>
    </TTGlyph>
    <TTGlyph name="glyph00009" xMin="303" yMin="400" xMax="390" yMax="550">
      <contour>
        <pt x="390" y="500" on="1" overlap="1"/>
        <pt x="390" y="400" on="1"/>
        <pt x="303" y="450" on="1"/>
        <pt x="303" y="550" on="1"/>
      </contour>
    </TTGlyph>
    <TTGlyph name="glyph00010" xMin="303" yMin="200" xMax="390" yMax="350">
      <contour>
        <pt x="390" y="300" on="1" overlap="1"/>
        <pt x="390" y="200" on="1"/>
        <pt x="303" y="250" on="1"/>
        <pt x="303" y="350" on="1"/>
      </contour>
    </TTGlyph>
    <TTGlyph name="glyph00011" xMin="43" yMin="50" xMax="217" yMax="150">
      <contour>
        <pt x="217" y="100" on="1" overlap="1"/>
        <pt x="130" y="50" on="1"/>
        <pt x="43" y="100" on="1"/>
        <pt x="130" y="150" on="1"/>
      </contour>
    </TTGlyph>
    <TTGlyph name="glyph00012" xMin="130" yMin="200" xMax="303" yMax="300">
      <contour>
        <pt x="303" y="250" on="1" overlap="1"/>
        <pt x="217" y="200" on="1"/>
        <pt x="130" y="250" on="1"/>
        <pt x="217" y="300" on="1"/>
      </contour>
    </TTGlyph>
    <TTGlyph name="glyph00013" xMin="130" yMin="100" xMax="217" yMax="250">
      <contour>
        <pt x="217" y="200" on="1" overlap="1"/>
        <pt x="217" y="100" on="1"/>
        <pt x="130" y="150" on="1"/>
        <pt x="130" y="250" on="1"/>
      </contour>
    </TTGlyph>
    <TTGlyph name="glyph00014" xMin="303" yMin="700" xMax="476" yMax="800">
      <contour>
        <pt x="476" y="750" on="1" overlap="1"/>
        <pt x="390" y="700" on="1"/>
        <pt x="303" y="750" on="1"/>
        <pt x="390" y="800" on="1"/>
      </contour>
    </TTGlyph>
    <TTGlyph name="glyph00015" xMin="303" yMin="300" xMax="476" yMax="400">
      <contour>
        <pt x="476" y="350" on="1" overlap="1"/>
        <pt x="390" y="300" on="1"/>
        <pt x="303" y="350" on="1"/>
        <pt x="390" y="400" on="1"/>
      </contour>
    </TTGlyph>
    <TTGlyph name="glyph00016" xMin="217" yMin="350" xMax="390" yMax="450">
      <contour>
        <pt x="390" y="400" on="1" overlap="1"/>
        <pt x="303" y="350" on="1"/>
        <pt x="217" y="400" on="1"/>
        <pt x="303" y="450" on="1"/>
      </contour>
    </TTGlyph>
    <TTGlyph name="glyph00017" xMin="390" yMin="450" xMax="563" yMax="550">
      <contour>
        <pt x="563" y="500" on="1" overlap="1"/>
        <pt x="476" y="450" on="1"/>
        <pt x="390" y="500" on="1"/>
        <pt x="476" y="550" on="1"/>
      </contour>
    </TTGlyph>
    <TTGlyph name="glyph00018" xMin="217" yMin="250" xMax="303" yMax="400">
      <contour>
        <pt x="303" y="350" on="1" overlap="1"/>
        <pt x="303" y="250" on="1"/>
        <pt x="217" y="300" on="1"/>
        <pt x="217" y="400" on="1"/>
      </contour>
    </TTGlyph>
    <TTGlyph name="glyph00019" xMin="43" yMin="150" xMax="130" yMax="300">
      <contour>
        <pt x="130" y="250" on="1" overlap="1"/>
        <pt x="130" y="150" on="1"/>
        <pt x="43" y="200" on="1"/>
        <pt x="43" y="300" on="1"/>
      </contour>
    </TTGlyph>
    <TTGlyph name="glyph00020" xMin="217" yMin="750" xMax="390" yMax="850">
      <contour>
        <pt x="390" y="800" on="1" overlap="1"/>
        <pt x="303" y="750" on="1"/>
        <pt x="217" y="800" on="1"/>
        <pt x="303" y="850" on="1"/>
      </contour>
    </TTGlyph>
    <TTGlyph name="glyph00021" xMin="217" yMin="550" xMax="390" yMax="650">
      <contour>
        <pt x="390" y="600" on="1" overlap="1"/>
        <pt x="303" y="550" on="1"/>
        <pt x="217" y="600" on="1"/>
        <pt x="303" y="650" on="1"/>
      </contour>
    </TTGlyph>
    <TTGlyph name="glyph00022" xMin="217" yMin="450" xMax="303" yMax="600">
      <contour>
        <pt x="303" y="550" on="1" overlap="1"/>
        <pt x="303" y="450" on="1"/>
        <pt x="217" y="500" on="1"/>
        <pt x="217" y="600" on="1"/>
      </contour>
    </TTGlyph>
    <TTGlyph name="glyph00023" xMin="303" yMin="600" xMax="390" yMax="750">
      <contour>
        <pt x="390" y="700" on="1" overlap="1"/>
        <pt x="390" y="600" on="1"/>
        <pt x="303" y="650" on="1"/>
        <pt x="303" y="750" on="1"/>
      </contour>
    </TTGlyph>
    <TTGlyph name="glyph00024" xMin="43" yMin="250" xMax="217" yMax="350">
      <contour>
        <pt x="217" y="300" on="1" overlap="1"/>
        <pt x="130" y="250" on="1"/>
        <pt x="43" y="300" on="1"/>
        <pt x="130" y="350" on="1"/>
      </contour>
    </TTGlyph>
    <TTGlyph name="glyph00025" xMin="130" yMin="400" xMax="303" yMax="500">
      <contour>
        <pt x="303" y="450" on="1" overlap="1"/>
        <pt x="217" y="400" on="1"/>
        <pt x="130" y="450" on="1"/>
        <pt x="217" y="500" on="1"/>
      </contour>
    </TTGlyph>
    <TTGlyph name="glyph00026" xMin="130" yMin="300" xMax="217" yMax="450">
      <contour>
        <pt x="217" y="400" on="1" overlap="1"/>
        <pt x="217" y="300" on="1"/>
        <pt x="130" y="350" on="1"/>
        <pt x="130" y="450" on="1"/>
      </contour>
    </TTGlyph>
    <TTGlyph name="glyph00027" xMin="130" yMin="600" xMax="303" yMax="700">
      <contour>
        <pt x="303" y="650" on="1" overlap="1"/>
        <pt x="217" y="600" on="1"/>
        <pt x="130" y="650" on="1"/>
        <pt x="217" y="700" on="1"/>
      </contour>
    </TTGlyph>
    <TTGlyph name="glyph00028" xMin="217" yMin="150" xMax="390" yMax="250">
      <contour>
        <pt x="390" y="200" on="1" overlap="1"/>
        <pt x="303" y="150" on="1"/>
        <pt x="217" y="200" on="1"/>
        <pt x="303" y="250" on="1"/>
      </contour>
    </TTGlyph>
    <TTGlyph name="glyph00029" xMin="130" yMin="500" xMax="217" yMax="650">
      <contour>
        <pt x="217" y="600" on="1" overlap="1"/>
        <pt x="217" y="500" on="1"/>
        <pt x="130" y="550" on="1"/>
        <pt x="130" y="650" on="1"/>
      </contour>
    </TTGlyph>
    <TTGlyph name="glyph00030" xMin="217" yMin="650" xMax="303" yMax="800">
      <contour>
        <pt x="303" y="750" on="1" overlap="1"/>
        <pt x="303" y="650" on="1"/>
        <pt x="217" y="700" on="1"/>
        <pt x="217" y="800" on="1"/>
      </contour>
    </TTGlyph>
    <TTGlyph name="glyph00031" xMin="43" yMin="450" xMax="217" yMax="550">
      <contour>
        <pt x="217" y="500" on="1" overlap="1"/>
        <pt x="130" y="450" on="1"/>
        <pt x="43" y="500" on="1"/>
        <pt x="130" y="550" on="1"/>
      </contour>
    </TTGlyph>
    <TTGlyph name="glyph00032" xMin="43" yMin="350" xMax="130" yMax="500">
      <contour>
        <pt x="130" y="450" on="1" overlap="1"/>
        <pt x="130" y="350" on="1"/>
        <pt x="43" y="400" on="1"/>
        <pt x="43" y="500" on="1"/>
      </contour>
    </TTGlyph>
    <TTGlyph name="glyph00033" xMin="43" yMin="650" xMax="217" yMax="750">
      <contour>
        <pt x="217" y="700" on="1" overlap="1"/>
        <pt x="130" y="650" on="1"/>
        <pt x="43" y="700" on="1"/>
        <pt x="130" y="750" on="1"/>
      </contour>
    </TTGlyph>
    <TTGlyph name="glyph00034" xMin="43" yMin="550" xMax="130" yMax="700">
      <contour>
        <pt x="130" y="650" on="1" overlap="1"/>
        <pt x="130" y="550" on="1"/>
        <pt x="43" y="600" on="1"/>
        <pt x="43" y="700" on="1"/>
      </contour>
    </TTGlyph>
    <TTGlyph name="glyph00035" xMin="217" yMin="50" xMax="303" yMax="200">
      <contour>
        <pt x="303" y="150" on="1" overlap="1"/>
        <pt x="303" y="50" on="1"/>
        <pt x="217" y="100" on="1"/>
        <pt x="217" y="200" on="1"/>
      </contour>
    </TTGlyph>
    <TTGlyph name="glyph00036" xMin="43" yMin="-50" xMax="130" yMax="100">
      <contour>
        <pt x="130" y="50" on="1" overlap="1"/>
        <pt x="130" y="-50" on="1"/>
        <pt x="43" y="0" on="1"/>
        <pt x="43" y="100" on="1"/>
      </contour>
    </TTGlyph>
    <TTGlyph name="glyph00037" xMin="390" yMin="850" xMax="563" yMax="950">
      <contour>
        <pt x="563" y="900" on="1" overlap="1"/>
        <pt x="476" y="850" on="1"/>
        <pt x="390" y="900" on="1"/>
        <pt x="476" y="950" on="1"/>
      </contour>
    </TTGlyph>
    <TTGlyph name="glyph00038" xMin="390" yMin="750" xMax="476" yMax="900">
      <contour>
        <pt x="476" y="850" on="1" overlap="1"/>
        <pt x="476" y="750" on="1"/>
        <pt x="390" y="800" on="1"/>
        <pt x="390" y="900" on="1"/>
      </contour>
    </TTGlyph>
    <TTGlyph name="glyph00039" xMin="390" yMin="650" xMax="563" yMax="750">
      <contour>
        <pt x="563" y="700" on="1" overlap="1"/>
        <pt x="476" y="650" on="1"/>
        <pt x="390" y="700" on="1"/>
        <pt x="476" y="750" on="1"/>
      </contour>
    </TTGlyph>
    <TTGlyph name="glyph00040" xMin="390" yMin="550" xMax="476" yMax="700">
      <contour>
        <pt x="476" y="650" on="1" overlap="1"/>
        <pt x="476" y="550" on="1"/>
        <pt x="390" y="600" on="1"/>
        <pt x="390" y="700" on="1"/>
      </contour>
    </TTGlyph>
    <TTGlyph name="glyph00041" xMin="130" yMin="-40" xMax="632" yMax="730">
      <contour>
        <pt x="217" y="60" on="1" overlap="1"/>
        <pt x="130" y="10" on="1"/>
        <pt x="130" y="110" on="1"/>
        <pt x="217" y="160" on="1"/>
        <pt x="217" y="340" on="1"/>
        <pt x="130" y="290" on="1"/>
        <pt x="130" y="390" on="1"/>
        <pt x="217" y="440" on="1"/>
        <pt x="217" y="540" on="1"/>
        <pt x="303" y="590" on="1"/>
        <pt x="303" y="490" on="1"/>
        <pt x="459" y="580" on="1"/>
        <pt x="459" y="680" on="1"/>
        <pt x="546" y="730" on="1"/>
        <pt x="546" y="630" on="1"/>
        <pt x="632" y="680" on="1"/>
        <pt x="632" y="580" on="1"/>
        <pt x="546" y="530" on="1"/>
        <pt x="546" y="350" on="1"/>
        <pt x="632" y="400" on="1"/>
        <pt x="632" y="300" on="1"/>
        <pt x="546" y="250" on="1"/>
        <pt x="546" y="150" on="1"/>
        <pt x="459" y="100" on="1"/>
        <pt x="459" y="300" on="1"/>
        <pt x="459" y="274" on="0"/>
        <pt x="435" y="214" on="0"/>
        <pt x="395" y="163" on="0"/>
        <pt x="372" y="150" on="1"/>
        <pt x="303" y="110" on="1"/>
        <pt x="303" y="10" on="1"/>
        <pt x="217" y="-40" on="1"/>
      </contour>
      <contour>
        <pt x="303" y="390" on="1"/>
        <pt x="303" y="210" on="1"/>
        <pt x="459" y="300" on="1"/>
        <pt x="459" y="580" on="1"/>
        <pt x="459" y="554" on="0"/>
        <pt x="435" y="494" on="0"/>
        <pt x="395" y="443" on="0"/>
        <pt x="372" y="430" on="1"/>
      </contour>
    </TTGlyph>
    <TTGlyph name="glyph00042" xMin="125" yMin="10" xMax="546" yMax="730">
      <contour>
        <pt x="459" y="610" on="1" overlap="1"/>
        <pt x="455" y="601" on="0"/>
        <pt x="454" y="589" on="0"/>
        <pt x="454" y="583" on="1"/>
        <pt x="433" y="571" on="0"/>
        <pt x="385" y="542" on="0"/>
        <pt x="346" y="515" on="1"/>
        <pt x="393" y="537" on="0"/>
        <pt x="443" y="565" on="0"/>
        <pt x="464" y="577" on="1"/>
        <pt x="464" y="583" on="0"/>
        <pt x="463" y="597" on="0"/>
      </contour>
      <contour>
        <pt x="459" y="460" on="1"/>
        <pt x="455" y="402" on="0"/>
        <pt x="454" y="333" on="0"/>
        <pt x="454" y="303" on="1"/>
        <pt x="425" y="286" on="0"/>
        <pt x="358" y="246" on="0"/>
        <pt x="303" y="210" on="1"/>
        <pt x="365" y="242" on="0"/>
        <pt x="435" y="280" on="0"/>
        <pt x="464" y="297" on="1"/>
        <pt x="464" y="327" on="0"/>
        <pt x="463" y="398" on="0"/>
      </contour>
      <contour>
        <pt x="303" y="590" on="1"/>
        <pt x="267" y="574" on="0"/>
        <pt x="228" y="552" on="0"/>
        <pt x="211" y="543" on="1"/>
        <pt x="211" y="530" on="0"/>
        <pt x="213" y="499" on="0"/>
        <pt x="217" y="470" on="1"/>
        <pt x="220" y="494" on="0"/>
        <pt x="222" y="524" on="0"/>
        <pt x="222" y="537" on="1"/>
        <pt x="238" y="546" on="0"/>
        <pt x="275" y="569" on="0"/>
      </contour>
      <contour>
        <pt x="191" y="425" on="1"/>
        <pt x="164" y="414" on="0"/>
        <pt x="136" y="400" on="0"/>
        <pt x="125" y="393" on="1"/>
        <pt x="125" y="374" on="0"/>
        <pt x="126" y="330" on="0"/>
        <pt x="130" y="290" on="1"/>
        <pt x="134" y="325" on="0"/>
        <pt x="135" y="368" on="0"/>
        <pt x="135" y="387" on="1"/>
        <pt x="146" y="394" on="0"/>
        <pt x="172" y="410" on="0"/>
      </contour>
      <contour>
        <pt x="217" y="290" on="1"/>
        <pt x="213" y="244" on="0"/>
        <pt x="211" y="187" on="0"/>
        <pt x="211" y="163" on="1"/>
        <pt x="206" y="160" on="0"/>
        <pt x="196" y="153" on="0"/>
        <pt x="191" y="145" on="1"/>
        <pt x="204" y="148" on="0"/>
        <pt x="217" y="154" on="0"/>
        <pt x="222" y="157" on="1"/>
        <pt x="222" y="181" on="0"/>
        <pt x="220" y="239" on="0"/>
      </contour>
      <contour>
        <pt x="165" y="130" on="1"/>
        <pt x="148" y="125" on="0"/>
        <pt x="131" y="117" on="0"/>
        <pt x="125" y="113" on="1"/>
        <pt x="125" y="94" on="0"/>
        <pt x="126" y="50" on="0"/>
        <pt x="130" y="10" on="1"/>
        <pt x="134" y="45" on="0"/>
        <pt x="135" y="88" on="0"/>
        <pt x="135" y="107" on="1"/>
        <pt x="142" y="111" on="0"/>
        <pt x="155" y="120" on="0"/>
      </contour>
      <contour>
        <pt x="546" y="730" on="1"/>
        <pt x="509" y="714" on="0"/>
        <pt x="470" y="692" on="0"/>
        <pt x="454" y="683" on="1"/>
        <pt x="454" y="672" on="0"/>
        <pt x="455" y="645" on="0"/>
        <pt x="459" y="620" on="1"/>
        <pt x="463" y="640" on="0"/>
        <pt x="464" y="666" on="0"/>
        <pt x="464" y="677" on="1"/>
        <pt x="480" y="686" on="0"/>
        <pt x="517" y="709" on="0"/>
      </contour>
    </TTGlyph>
    <TTGlyph name="glyph00043" xMin="130" yMin="-40" xMax="217" yMax="110">
      <contour>
        <pt x="217" y="60" on="1" overlap="1"/>
        <pt x="217" y="-40" on="1"/>
        <pt x="130" y="10" on="1"/>
        <pt x="130" y="110" on="1"/>
      </contour>
    </TTGlyph>
    <TTGlyph name="glyph00044" xMin="372" yMin="100" xMax="459" yMax="350">
      <contour>
        <pt x="459" y="300" on="1" overlap="1"/>
        <pt x="459" y="100" on="1"/>
        <pt x="372" y="150" on="1"/>
        <pt x="372" y="350" on="1"/>
      </contour>
    </TTGlyph>
    <TTGlyph name="glyph00045" xMin="217" yMin="490" xMax="459" yMax="630">
      <contour>
        <pt x="459" y="580" on="1" overlap="1"/>
        <pt x="303" y="490" on="1"/>
        <pt x="217" y="540" on="1"/>
        <pt x="372" y="630" on="1"/>
      </contour>
    </TTGlyph>
    <TTGlyph name="glyph00046" xMin="130" yMin="440" xMax="217" yMax="590">
      <contour>
        <pt x="217" y="540" on="1" overlap="1"/>
        <pt x="217" y="440" on="1"/>
        <pt x="130" y="490" on="1"/>
        <pt x="130" y="590" on="1"/>
      </contour>
    </TTGlyph>
    <TTGlyph name="glyph00047" xMin="130" yMin="160" xMax="217" yMax="390">
      <contour>
        <pt x="217" y="340" on="1" overlap="1"/>
        <pt x="217" y="160" on="1"/>
        <pt x="130" y="210" on="1"/>
        <pt x="130" y="390" on="1"/>
      </contour>
    </TTGlyph>
    <TTGlyph name="glyph00048" xMin="130" yMin="540" xMax="303" yMax="640">
      <contour>
        <pt x="303" y="590" on="1" overlap="1"/>
        <pt x="217" y="540" on="1"/>
        <pt x="130" y="590" on="1"/>
        <pt x="217" y="640" on="1"/>
      </contour>
    </TTGlyph>
    <TTGlyph name="glyph00049" xMin="43" yMin="390" xMax="217" yMax="490">
      <contour>
        <pt x="217" y="440" on="1" overlap="1"/>
        <pt x="130" y="390" on="1"/>
        <pt x="43" y="440" on="1"/>
        <pt x="130" y="490" on="1"/>
      </contour>
    </TTGlyph>
    <TTGlyph name="glyph00050" xMin="43" yMin="290" xMax="130" yMax="440">
      <contour>
        <pt x="130" y="390" on="1" overlap="1"/>
        <pt x="130" y="290" on="1"/>
        <pt x="43" y="340" on="1"/>
        <pt x="43" y="440" on="1"/>
      </contour>
    </TTGlyph>
    <TTGlyph name="glyph00051" xMin="459" yMin="350" xMax="632" yMax="450">
      <contour>
        <pt x="632" y="400" on="1" overlap="1"/>
        <pt x="546" y="350" on="1"/>
        <pt x="459" y="400" on="1"/>
        <pt x="546" y="450" on="1"/>
      </contour>
    </TTGlyph>
    <TTGlyph name="glyph00052" xMin="459" yMin="630" xMax="632" yMax="730">
      <contour>
        <pt x="632" y="680" on="1" overlap="1"/>
        <pt x="546" y="630" on="1"/>
        <pt x="459" y="680" on="1"/>
        <pt x="546" y="730" on="1"/>
      </contour>
    </TTGlyph>
    <TTGlyph name="glyph00053" xMin="43" yMin="110" xMax="217" yMax="210">
      <contour>
        <pt x="217" y="160" on="1" overlap="1"/>
        <pt x="130" y="110" on="1"/>
        <pt x="43" y="160" on="1"/>
        <pt x="130" y="210" on="1"/>
      </contour>
    </TTGlyph>
    <TTGlyph name="glyph00054" xMin="372" yMin="680" xMax="546" yMax="780">
      <contour>
        <pt x="546" y="730" on="1" overlap="1"/>
        <pt x="459" y="680" on="1"/>
        <pt x="372" y="730" on="1"/>
        <pt x="459" y="780" on="1"/>
      </contour>
    </TTGlyph>
    <TTGlyph name="glyph00055" xMin="372" yMin="580" xMax="459" yMax="730">
      <contour>
        <pt x="459" y="680" on="1" overlap="1"/>
        <pt x="459" y="580" on="1"/>
        <pt x="372" y="630" on="1"/>
        <pt x="372" y="730" on="1"/>
      </contour>
    </TTGlyph>
    <TTGlyph name="glyph00056" xMin="43" yMin="10" xMax="130" yMax="160">
      <contour>
        <pt x="130" y="110" on="1" overlap="1"/>
        <pt x="130" y="10" on="1"/>
        <pt x="43" y="60" on="1"/>
        <pt x="43" y="160" on="1"/>
      </contour>
    </TTGlyph>
    <TTGlyph name="glyph00057" xMin="372" yMin="300" xMax="459" yMax="630">
      <contour>
        <pt x="459" y="580" on="1" overlap="1"/>
        <pt x="459" y="300" on="1"/>
        <pt x="372" y="350" on="1"/>
        <pt x="372" y="630" on="1"/>
      </contour>
    </TTGlyph>
    <TTGlyph name="glyph00058" xMin="217" yMin="210" xMax="459" yMax="350">
      <contour>
        <pt x="459" y="300" on="1" overlap="1"/>
        <pt x="303" y="210" on="1"/>
        <pt x="217" y="260" on="1"/>
        <pt x="372" y="350" on="1"/>
      </contour>
    </TTGlyph>
    <TTGlyph name="numbersign" xMin="43" yMin="-40" xMax="632" yMax="780">
      <component glyphName="glyph00041" x="0" y="0" flags="0x604"/>
      <component glyphName="glyph00043" x="0" y="0" flags="0x4"/>
      <component glyphName="glyph00044" x="0" y="0" flags="0x4"/>
      <component glyphName="glyph00051" x="0" y="0" flags="0x4"/>
      <component glyphName="glyph00052" x="0" y="0" flags="0x4"/>
      <component glyphName="glyph00053" x="0" y="0" flags="0x4"/>
      <component glyphName="glyph00054" x="0" y="0" flags="0x4"/>
      <component glyphName="glyph00055" x="0" y="0" flags="0x4"/>
      <component glyphName="glyph00056" x="0" y="0" flags="0x4"/>
      <component glyphName="glyph00057" x="0" y="0" flags="0x4"/>
      <component glyphName="glyph00058" x="0" y="0" flags="0x4"/>
      <component glyphName="glyph00045" x="0" y="0" flags="0x4"/>
      <component glyphName="glyph00046" x="0" y="0" flags="0x4"/>
      <component glyphName="glyph00047" x="0" y="0" flags="0x4"/>
      <component glyphName="glyph00048" x="0" y="0" flags="0x4"/>
      <component glyphName="glyph00049" x="0" y="0" flags="0x4"/>
      <component glyphName="glyph00050" x="0" y="0" flags="0x4"/>
    </TTGlyph>
    <TTGlyph name="space" xMin="0" yMin="0" xMax="0" yMax="0">
      <component glyphName="glyph00059" x="0" y="0" flags="0x604"/>
    </TTGlyph>
</ttFont>
